<svg width="79" height="14" viewBox="0 0 79 14" fill="none" xmlns="http://www.w3.org/2000/svg">
<path d="M6.89683 0L8.85078 4.27038L13.4561 4.83688L10.0584 8.04262L10.9507 12.6631L6.89683 10.374L2.84297 12.6631L3.73526 8.04262L0.337554 4.83688L4.94287 4.27038L6.89683 0Z" fill="#FFEE55"/>
<path d="M23.1984 0L25.1524 4.27038L29.7577 4.83688L26.36 8.04262L27.2523 12.6631L23.1984 10.374L19.1446 12.6631L20.0368 8.04262L16.6391 4.83688L21.2445 4.27038L23.1984 0Z" fill="#FFEE55"/>
<path d="M39.5 0L41.454 4.27038L46.0593 4.83688L42.6616 8.04262L43.5539 12.6631L39.5 10.374L35.4461 12.6631L36.3384 8.04262L32.9407 4.83688L37.546 4.27038L39.5 0Z" fill="#FFEE55"/>
<path d="M55.8016 0L57.7555 4.27038L62.3609 4.83688L58.9631 8.04262L59.8554 12.6631L55.8016 10.374L51.7477 12.6631L52.64 8.04262L49.2423 4.83688L53.8476 4.27038L55.8016 0Z" fill="#FFEE55"/>
<path d="M72.1032 0L74.0571 4.27038L78.6624 4.83688L75.2647 8.04262L76.157 12.6631L72.1032 10.374L68.0493 12.6631L68.9416 8.04262L65.5439 4.83688L70.1492 4.27038L72.1032 0Z" fill="#FFEE55"/>
</svg>
