<svg width="177" height="34" viewBox="0 0 177 34" fill="none" xmlns="http://www.w3.org/2000/svg">
<rect x="0.15" y="0.15" width="33.3549" height="33.7" rx="5.85" fill="white" stroke="white" stroke-width="0.3"/>
<path d="M52.043 24.1677C50.9793 24.1677 49.9955 23.9729 49.0913 23.5834C48.2005 23.1939 47.4161 22.6499 46.738 21.9514C46.0732 21.2529 45.5547 20.4336 45.1824 19.4933C44.8101 18.5531 44.624 17.5255 44.624 16.4107C44.624 15.2958 44.8035 14.2682 45.1624 13.328C45.5347 12.3743 46.0533 11.555 46.718 10.8699C47.3961 10.1714 48.1872 9.63416 49.0913 9.25806C49.9955 8.86853 50.9793 8.67377 52.043 8.67377C53.1067 8.67377 54.0573 8.8551 54.8949 9.21777C55.7459 9.58043 56.4639 10.064 57.0489 10.6684C57.6339 11.2594 58.0527 11.9109 58.3053 12.6228L55.8722 13.7712C55.593 13.0191 55.121 12.4012 54.4562 11.9176C53.7914 11.4206 52.987 11.1721 52.043 11.1721C51.1123 11.1721 50.288 11.3938 49.57 11.837C48.8653 12.2803 48.3135 12.8914 47.9147 13.6705C47.5291 14.4496 47.3363 15.363 47.3363 16.4107C47.3363 17.4584 47.5291 18.3785 47.9147 19.171C48.3135 19.95 48.8653 20.5612 49.57 21.0044C50.288 21.4477 51.1123 21.6693 52.043 21.6693C52.987 21.6693 53.7914 21.4275 54.4562 20.944C55.121 20.447 55.593 19.8224 55.8722 19.0702L58.3053 20.2187C58.0527 20.9306 57.6339 21.5887 57.0489 22.1932C56.4639 22.7842 55.7459 23.261 54.8949 23.6237C54.0573 23.9864 53.1067 24.1677 52.043 24.1677Z" fill="white"/>
<path d="M60.288 23.9259V8.67377H62.9006V15.1212L62.5416 14.7384C62.7942 14.0802 63.2064 13.5832 63.7781 13.2474C64.3632 12.8982 65.0412 12.7235 65.8124 12.7235C66.6101 12.7235 67.3148 12.8982 67.9264 13.2474C68.5513 13.5966 69.0366 14.0869 69.3823 14.7182C69.728 15.3361 69.9008 16.0547 69.9008 16.8741V23.9259H67.2882V17.4987C67.2882 17.0151 67.1952 16.5987 67.009 16.2495C66.8229 15.9002 66.5636 15.6316 66.2312 15.4435C65.9121 15.2421 65.5332 15.1413 65.0944 15.1413C64.669 15.1413 64.29 15.2421 63.9576 15.4435C63.6252 15.6316 63.366 15.9002 63.1798 16.2495C62.9937 16.5987 62.9006 17.0151 62.9006 17.4987V23.9259H60.288Z" fill="white"/>
<path d="M77.2555 24.1677C76.1387 24.1677 75.1615 23.9125 74.3238 23.4021C73.4862 22.8916 72.8347 22.1999 72.3693 21.3268C71.904 20.4537 71.6713 19.4866 71.6713 18.4255C71.6713 17.324 71.904 16.3502 72.3693 15.504C72.848 14.6443 73.4928 13.966 74.3039 13.469C75.1282 12.972 76.0456 12.7235 77.0561 12.7235C77.907 12.7235 78.6516 12.8646 79.2898 13.1467C79.9413 13.4287 80.4931 13.8183 80.9451 14.3152C81.3972 14.8122 81.7429 15.3831 81.9822 16.0278C82.2215 16.6592 82.3412 17.3442 82.3412 18.083C82.3412 18.271 82.3279 18.4658 82.3013 18.6672C82.288 18.8687 82.2547 19.0433 82.2016 19.1911H73.8252V17.1763H80.7257L79.4892 18.1233C79.6089 17.5054 79.5756 16.9547 79.3895 16.4711C79.2167 15.9875 78.9242 15.6047 78.512 15.3227C78.1131 15.0406 77.6278 14.8995 77.0561 14.8995C76.511 14.8995 76.0257 15.0406 75.6002 15.3227C75.1747 15.5913 74.849 15.9943 74.623 16.5315C74.4102 17.0554 74.3305 17.6934 74.3836 18.4456C74.3305 19.1172 74.4169 19.715 74.6429 20.2388C74.8822 20.7492 75.2279 21.1455 75.68 21.4275C76.1453 21.7096 76.6772 21.8507 77.2755 21.8507C77.8738 21.8507 78.379 21.7231 78.7912 21.4678C79.2167 21.2126 79.5491 20.8701 79.7884 20.4403L81.9024 21.488C81.6897 22.0118 81.3573 22.4752 80.9052 22.8782C80.4532 23.2812 79.9147 23.5968 79.2898 23.8252C78.6782 24.0535 78.0001 24.1677 77.2555 24.1677Z" fill="white"/>
<path d="M87.5734 24.1677C86.8156 24.1677 86.1574 24.0401 85.599 23.7849C85.0406 23.5297 84.6085 23.167 84.3027 22.6969C83.9969 22.2133 83.844 21.6559 83.844 21.0246C83.844 20.4201 83.9769 19.8829 84.2428 19.4127C84.5087 18.9292 84.9209 18.5262 85.4793 18.2038C86.0378 17.8815 86.7424 17.6531 87.5934 17.5188L91.1433 16.9345V18.9493L88.092 19.4732C87.5734 19.5672 87.1878 19.7351 86.9352 19.9769C86.6826 20.2187 86.5563 20.5343 86.5563 20.9238C86.5563 21.2999 86.6959 21.6022 86.9751 21.8305C87.2676 22.0454 87.6266 22.1529 88.0521 22.1529C88.5972 22.1529 89.0758 22.0387 89.488 21.8104C89.9135 21.5686 90.2392 21.2395 90.4653 20.8231C90.7046 20.4067 90.8242 19.95 90.8242 19.453V16.6323C90.8242 16.1622 90.6381 15.7726 90.2658 15.4637C89.9068 15.1413 89.4282 14.9801 88.8299 14.9801C88.2715 14.9801 87.7729 15.1346 87.3341 15.4435C86.9086 15.7391 86.5962 16.1353 86.3967 16.6323L84.2628 15.5846C84.4755 15.007 84.8079 14.51 85.26 14.0936C85.7253 13.6638 86.2704 13.328 86.8953 13.0862C87.5202 12.8444 88.1983 12.7235 88.9296 12.7235C89.8204 12.7235 90.6049 12.8914 91.2829 13.2272C91.961 13.5496 92.4862 14.0063 92.8585 14.5973C93.2441 15.1749 93.4369 15.8532 93.4369 16.6323V23.9259H90.9638V22.0521L91.5223 22.0118C91.2431 22.482 90.9107 22.8782 90.5251 23.2006C90.1395 23.5095 89.7007 23.7513 89.2088 23.9259C88.7169 24.0871 88.1717 24.1677 87.5734 24.1677Z" fill="white"/>
<path d="M95.8516 27.9555V12.9653H98.3047V15.1413L98.0653 14.5973C98.4376 14.0063 98.9429 13.5496 99.5811 13.2272C100.219 12.8914 100.957 12.7235 101.795 12.7235C102.819 12.7235 103.743 12.9788 104.567 13.4892C105.391 13.9996 106.043 14.6846 106.521 15.5443C107.013 16.4039 107.259 17.3711 107.259 18.4456C107.259 19.5068 107.02 20.4739 106.541 21.347C106.063 22.22 105.411 22.9118 104.587 23.4222C103.763 23.9192 102.825 24.1677 101.775 24.1677C100.99 24.1677 100.266 24.0132 99.601 23.7043C98.9495 23.3819 98.431 22.9252 98.0454 22.3342L98.4642 21.8104V27.9555H95.8516ZM101.476 21.7499C102.074 21.7499 102.606 21.6089 103.071 21.3268C103.537 21.0447 103.896 20.6552 104.148 20.1582C104.414 19.6612 104.547 19.0904 104.547 18.4456C104.547 17.8009 104.414 17.2367 104.148 16.7532C103.896 16.2562 103.537 15.8667 103.071 15.5846C102.606 15.2891 102.074 15.1413 101.476 15.1413C100.904 15.1413 100.385 15.2824 99.9201 15.5644C99.4681 15.8465 99.1091 16.2428 98.8431 16.7532C98.5905 17.2502 98.4642 17.8143 98.4642 18.4456C98.4642 19.0904 98.5905 19.6612 98.8431 20.1582C99.1091 20.6552 99.4681 21.0447 99.9201 21.3268C100.385 21.6089 100.904 21.7499 101.476 21.7499Z" fill="white"/>
<path d="M109.471 23.9259V8.91554H115.733C116.717 8.91554 117.554 9.09016 118.246 9.4394C118.951 9.7752 119.489 10.2588 119.861 10.8901C120.247 11.5079 120.44 12.2601 120.44 13.1467C120.44 13.8317 120.254 14.4764 119.881 15.0809C119.522 15.6719 118.944 16.1622 118.146 16.5517V15.2824C118.877 15.5644 119.456 15.9137 119.881 16.3301C120.307 16.7465 120.606 17.2099 120.779 17.7203C120.952 18.2307 121.038 18.768 121.038 19.3321C121.038 20.7694 120.566 21.8977 119.622 22.717C118.691 23.523 117.395 23.9259 115.733 23.9259H109.471ZM112.183 21.5081H116.012C116.717 21.5081 117.275 21.3134 117.687 20.9238C118.113 20.5209 118.326 19.9903 118.326 19.3321C118.326 18.674 118.113 18.1434 117.687 17.7404C117.275 17.3375 116.717 17.136 116.012 17.136H112.183V21.5081ZM112.183 14.7384H115.873C116.431 14.7384 116.876 14.5772 117.209 14.2548C117.541 13.919 117.707 13.4892 117.707 12.9653C117.707 12.4415 117.541 12.0251 117.209 11.7161C116.876 11.4072 116.431 11.2527 115.873 11.2527H112.183V14.7384Z" fill="white"/>
<path d="M128.345 24.1677C127.282 24.1677 126.311 23.9192 125.434 23.4222C124.569 22.9252 123.878 22.2469 123.36 21.3872C122.854 20.5276 122.602 19.5471 122.602 18.4456C122.602 17.3442 122.854 16.3636 123.36 15.504C123.878 14.6443 124.569 13.966 125.434 13.469C126.298 12.972 127.268 12.7235 128.345 12.7235C129.409 12.7235 130.373 12.972 131.237 13.469C132.101 13.966 132.786 14.6443 133.291 15.504C133.81 16.3502 134.069 17.3308 134.069 18.4456C134.069 19.5471 133.81 20.5276 133.291 21.3872C132.773 22.2469 132.082 22.9252 131.217 23.4222C130.353 23.9192 129.396 24.1677 128.345 24.1677ZM128.345 21.7499C128.93 21.7499 129.442 21.6089 129.881 21.3268C130.333 21.0447 130.685 20.6552 130.938 20.1582C131.204 19.6478 131.337 19.0769 131.337 18.4456C131.337 17.8009 131.204 17.2367 130.938 16.7532C130.685 16.2562 130.333 15.8667 129.881 15.5846C129.442 15.2891 128.93 15.1413 128.345 15.1413C127.747 15.1413 127.222 15.2891 126.77 15.5846C126.318 15.8667 125.959 16.2562 125.693 16.7532C125.44 17.2367 125.314 17.8009 125.314 18.4456C125.314 19.0769 125.44 19.6478 125.693 20.1582C125.959 20.6552 126.318 21.0447 126.77 21.3268C127.222 21.6089 127.747 21.7499 128.345 21.7499Z" fill="white"/>
<path d="M141.356 24.1677C140.292 24.1677 139.321 23.9192 138.444 23.4222C137.58 22.9252 136.888 22.2469 136.37 21.3872C135.864 20.5276 135.612 19.5471 135.612 18.4456C135.612 17.3442 135.864 16.3636 136.37 15.504C136.888 14.6443 137.58 13.966 138.444 13.469C139.308 12.972 140.279 12.7235 141.356 12.7235C142.419 12.7235 143.383 12.972 144.247 13.469C145.112 13.966 145.796 14.6443 146.302 15.504C146.82 16.3502 147.079 17.3308 147.079 18.4456C147.079 19.5471 146.82 20.5276 146.302 21.3872C145.783 22.2469 145.092 22.9252 144.227 23.4222C143.363 23.9192 142.406 24.1677 141.356 24.1677ZM141.356 21.7499C141.941 21.7499 142.452 21.6089 142.891 21.3268C143.343 21.0447 143.696 20.6552 143.948 20.1582C144.214 19.6478 144.347 19.0769 144.347 18.4456C144.347 17.8009 144.214 17.2367 143.948 16.7532C143.696 16.2562 143.343 15.8667 142.891 15.5846C142.452 15.2891 141.941 15.1413 141.356 15.1413C140.757 15.1413 140.232 15.2891 139.78 15.5846C139.328 15.8667 138.969 16.2562 138.703 16.7532C138.45 17.2367 138.324 17.8009 138.324 18.4456C138.324 19.0769 138.45 19.6478 138.703 20.1582C138.969 20.6552 139.328 21.0447 139.78 21.3268C140.232 21.6089 140.757 21.7499 141.356 21.7499Z" fill="white"/>
<path d="M153.189 24.1677C152.032 24.1677 151.022 23.8923 150.158 23.3416C149.307 22.7775 148.722 22.0186 148.403 21.0649L150.357 20.1179C150.636 20.7358 151.022 21.2193 151.514 21.5686C152.019 21.9178 152.577 22.0924 153.189 22.0924C153.668 22.0924 154.047 21.985 154.326 21.7701C154.605 21.5552 154.745 21.2731 154.745 20.9238C154.745 20.7089 154.685 20.5343 154.565 20.4C154.459 20.2522 154.306 20.1313 154.106 20.0373C153.92 19.9299 153.714 19.8426 153.488 19.7754L151.713 19.2717C150.796 19.0031 150.098 18.5934 149.619 18.0427C149.154 17.4919 148.921 16.8405 148.921 16.0883C148.921 15.4167 149.087 14.8324 149.42 14.3354C149.765 13.825 150.237 13.4287 150.836 13.1467C151.447 12.8646 152.145 12.7235 152.93 12.7235C153.954 12.7235 154.858 12.972 155.642 13.469C156.427 13.966 156.985 14.6645 157.317 15.5644L155.323 16.5114C155.137 16.0144 154.824 15.6182 154.386 15.3227C153.947 15.0271 153.455 14.8794 152.91 14.8794C152.471 14.8794 152.125 14.9801 151.873 15.1816C151.62 15.3831 151.494 15.645 151.494 15.9674C151.494 16.1689 151.547 16.3435 151.653 16.4912C151.76 16.639 151.906 16.7599 152.092 16.8539C152.292 16.9479 152.518 17.0352 152.77 17.1158L154.505 17.6397C155.396 17.9083 156.081 18.3113 156.559 18.8486C157.051 19.3859 157.297 20.044 157.297 20.8231C157.297 21.4813 157.125 22.0656 156.779 22.576C156.433 23.073 155.955 23.4625 155.343 23.7446C154.731 24.0267 154.013 24.1677 153.189 24.1677Z" fill="white"/>
<path d="M164.251 24.0468C163.028 24.0468 162.077 23.711 161.399 23.0394C160.734 22.3544 160.402 21.394 160.402 20.1582V15.3227H158.527V12.9653H158.727C159.259 12.9653 159.671 12.8243 159.963 12.5422C160.256 12.2601 160.402 11.8505 160.402 11.3132V10.467H163.015V12.9653H165.508V15.3227H163.015V20.0172C163.015 20.3798 163.075 20.6888 163.194 20.944C163.327 21.1992 163.527 21.394 163.792 21.5283C164.072 21.6626 164.424 21.7298 164.85 21.7298C164.943 21.7298 165.049 21.7231 165.169 21.7096C165.302 21.6962 165.428 21.6828 165.548 21.6693V23.9259C165.361 23.9528 165.149 23.9796 164.909 24.0065C164.67 24.0334 164.451 24.0468 164.251 24.0468Z" fill="white"/>
<path d="M171.672 24.1677C170.515 24.1677 169.505 23.8923 168.641 23.3416C167.79 22.7775 167.205 22.0186 166.885 21.0649L168.84 20.1179C169.119 20.7358 169.505 21.2193 169.997 21.5686C170.502 21.9178 171.06 22.0924 171.672 22.0924C172.151 22.0924 172.53 21.985 172.809 21.7701C173.088 21.5552 173.228 21.2731 173.228 20.9238C173.228 20.7089 173.168 20.5343 173.048 20.4C172.942 20.2522 172.789 20.1313 172.589 20.0373C172.403 19.9299 172.197 19.8426 171.971 19.7754L170.196 19.2717C169.279 19.0031 168.581 18.5934 168.102 18.0427C167.637 17.4919 167.404 16.8405 167.404 16.0883C167.404 15.4167 167.57 14.8324 167.903 14.3354C168.248 13.825 168.72 13.4287 169.319 13.1467C169.93 12.8646 170.628 12.7235 171.413 12.7235C172.436 12.7235 173.341 12.972 174.125 13.469C174.909 13.966 175.468 14.6645 175.8 15.5644L173.806 16.5114C173.62 16.0144 173.307 15.6182 172.869 15.3227C172.43 15.0271 171.938 14.8794 171.393 14.8794C170.954 14.8794 170.608 14.9801 170.356 15.1816C170.103 15.3831 169.977 15.645 169.977 15.9674C169.977 16.1689 170.03 16.3435 170.136 16.4912C170.243 16.639 170.389 16.7599 170.575 16.8539C170.774 16.9479 171.001 17.0352 171.253 17.1158L172.988 17.6397C173.879 17.9083 174.564 18.3113 175.042 18.8486C175.534 19.3859 175.78 20.044 175.78 20.8231C175.78 21.4813 175.607 22.0656 175.262 22.576C174.916 23.073 174.437 23.4625 173.826 23.7446C173.214 24.0267 172.496 24.1677 171.672 24.1677Z" fill="white"/>
<path d="M15.1261 7.55554C15.2732 7.56429 15.4097 7.56808 15.5452 7.58061C16.2625 7.64736 17.2407 8.13618 17.7835 8.81593C18.095 9.20937 18.3163 9.66723 18.4315 10.1568C18.511 10.4877 18.5499 10.8272 18.5473 11.1676C18.545 12.5452 18.545 13.9228 18.5473 15.3003V15.3991C18.6067 15.4029 18.6615 15.4091 18.7159 15.4091C19.1143 15.4102 19.5126 15.4107 19.9108 15.4105C20.8673 15.4105 21.8237 15.4105 22.7799 15.4105C23.4761 15.4141 24.1546 15.6316 24.7247 16.0337C25.2947 16.4359 25.7291 17.0037 25.9698 17.6611C26.1026 18.0274 26.1706 18.4143 26.1708 18.8043C26.1721 19.4242 26.1733 20.0443 26.1743 20.6646C26.1743 21.3569 26.1748 22.0492 26.176 22.7414C26.176 23.7925 26.175 24.8438 26.1731 25.8953C26.1731 26.0488 26.1723 26.2026 26.1708 26.3567C26.1708 26.3841 26.1667 26.4112 26.1641 26.4441H26.0911H19.7414C19.3358 26.4441 18.9303 26.4383 18.5248 26.4441C16.9895 26.4651 15.6119 25.3307 15.2405 23.9015C15.1831 23.6756 15.1494 23.4443 15.14 23.2113C15.1319 23.044 15.1287 22.8761 15.1287 22.7082C15.1287 21.0484 15.1287 19.3888 15.1287 17.7293L15.1261 7.66776V7.55554ZM18.5586 22.9938C18.6085 22.9973 18.6519 23.0031 18.6954 23.0034C19.0611 23.0034 19.427 23.0034 19.7929 23.0034H21.6059H22.5992C22.7298 23.0034 22.7559 22.976 22.7571 22.8428C22.7571 22.7496 22.7594 22.6566 22.7597 22.5633C22.7597 21.8733 22.7606 21.1834 22.7626 20.4937C22.7626 20.1559 22.7655 19.8178 22.7666 19.48C22.7666 19.3237 22.7689 19.1678 22.7666 19.0115C22.7666 18.8949 22.7238 18.8533 22.6061 18.8492C22.5644 18.8492 22.5227 18.8492 22.481 18.8492L19.7515 18.8524C19.4019 18.8524 19.0522 18.8524 18.7026 18.8524C18.6551 18.8524 18.6073 18.8591 18.5578 18.8626L18.5586 22.9938Z" fill="#4189FD"/>
<path d="M14.3767 7.57462V10.9929H10.9108C10.8952 11.0535 10.8932 15.3314 10.9082 15.4069H14.3779C14.3816 15.4651 14.388 15.5191 14.388 15.5718C14.388 16.0172 14.388 16.4623 14.388 16.9074C14.388 17.4694 14.389 18.0312 14.3909 18.5928C14.3909 18.6348 14.3932 18.6767 14.3909 18.7184C14.3839 18.8167 14.3547 18.8473 14.2591 18.8537C14.2084 18.8572 14.1574 18.8537 14.1064 18.8537C13.0737 18.8537 12.0405 18.8529 11.007 18.8513C10.8564 18.8513 10.7058 18.849 10.556 18.8374C10.1344 18.8058 9.72379 18.6867 9.35013 18.4876C8.45216 18.0113 7.85371 17.2861 7.5849 16.2956C7.51391 16.0277 7.47875 15.7514 7.48033 15.4742C7.47936 12.8656 7.47888 10.2571 7.47888 7.64865V7.57462H14.3767Z" fill="#4189FD"/>
</svg>
