<svg width="21" height="21" viewBox="0 0 21 21" fill="none" xmlns="http://www.w3.org/2000/svg">
<path d="M8.33963 14.4979L4.01625 10.1771C3.95572 10.1145 3.8833 10.0645 3.80324 10.0301C3.72317 9.99568 3.63706 9.97757 3.54992 9.97682C3.46279 9.97606 3.37637 9.99266 3.29572 10.0257C3.21507 10.0587 3.1418 10.1074 3.08018 10.169C3.01856 10.2306 2.96984 10.3039 2.93684 10.3845C2.90384 10.4652 2.88724 10.5516 2.88799 10.6387C2.88875 10.7259 2.90686 10.812 2.94125 10.8921C2.97564 10.9721 3.02564 11.0445 3.08832 11.1051L8.33832 16.3551L18.8383 5.85507C18.9579 5.7313 19.024 5.56553 19.0225 5.39347C19.021 5.2214 18.952 5.05681 18.8303 4.93513C18.7086 4.81346 18.5441 4.74444 18.372 4.74294C18.1999 4.74145 18.0341 4.8076 17.9104 4.92714L8.33832 14.4979H8.33963Z" fill="#29E2C1"/>
</svg>
