<svg width="24" height="24" viewBox="0 0 24 24" fill="none" xmlns="http://www.w3.org/2000/svg">
<g clip-path="url(#clip0_12_37)">
<path d="M12 24.0457C5.33943 24.0457 -0.0457153 18.6606 -0.0457153 12C-0.0457153 5.33943 5.33943 -0.0457153 12 -0.0457153C18.6606 -0.0457153 24.0457 5.33943 24.0457 12C24.0457 18.6606 18.6606 24.0457 12 24.0457ZM12 1.37143C6.11886 1.37143 1.37143 6.11886 1.37143 12C1.37143 17.8811 6.11886 22.6286 12 22.6286C17.8811 22.6286 22.6286 17.8811 22.6286 12C22.6286 6.11886 17.8811 1.37143 12 1.37143Z" fill="#327DF5"/>
<path d="M10.5828 17.2434L4.41827 11.0789L5.41027 10.0868L10.5828 15.2594L18.5897 7.25256L19.5817 8.24456L10.5828 17.2434Z" fill="#327DF5"/>
</g>
<defs>
<clipPath id="clip0_12_37">
<rect width="24" height="24" fill="white"/>
</clipPath>
</defs>
</svg>
