<svg width="531" height="130" viewBox="0 0 531 130" fill="none" xmlns="http://www.w3.org/2000/svg">
<g clip-path="url(#clip0_201_2)">
<path d="M139.547 46.0747H193.312V56.0747H172.172V112.29H160.547V56.0747H139.5V46.0747H139.547ZM191.016 64.3457H200.953V73.5981H201.141C201.469 72.2897 202.078 71.028 202.969 69.813C203.859 68.5981 204.937 67.4298 206.203 66.4485C207.469 65.4205 208.875 64.6261 210.422 63.9719C211.969 63.3644 213.562 63.0373 215.156 63.0373C216.375 63.0373 217.266 63.0841 217.734 63.1308C218.203 63.1775 218.672 63.271 219.188 63.3177V73.5046C218.437 73.3644 217.688 73.271 216.891 73.1775C216.094 73.0841 215.344 73.0373 214.594 73.0373C212.812 73.0373 211.125 73.4112 209.531 74.1121C207.937 74.813 206.578 75.8878 205.406 77.2429C204.234 78.6448 203.297 80.327 202.594 82.3831C201.891 84.4392 201.562 86.7756 201.562 89.4392V112.243H190.969V64.3457H191.016ZM267.891 112.29H257.484V105.607H257.297C255.984 108.037 254.062 109.953 251.484 111.402C248.906 112.85 246.281 113.598 243.609 113.598C237.281 113.598 232.687 112.056 229.875 108.925C227.062 105.794 225.656 101.075 225.656 94.7663V64.3457H236.25V93.7383C236.25 97.9439 237.047 100.935 238.688 102.663C240.281 104.392 242.578 105.28 245.484 105.28C247.734 105.28 249.562 104.953 251.062 104.252C252.562 103.551 253.781 102.663 254.672 101.495C255.609 100.374 256.266 98.9719 256.687 97.3831C257.109 95.7943 257.297 94.0654 257.297 92.1962V64.3925H267.891V112.29ZM285.937 96.9158C286.266 99.9999 287.437 102.149 289.453 103.411C291.516 104.626 293.953 105.28 296.813 105.28C297.797 105.28 298.922 105.187 300.188 105.047C301.453 104.906 302.672 104.579 303.75 104.159C304.875 103.738 305.766 103.084 306.516 102.243C307.219 101.402 307.547 100.327 307.5 98.9719C307.453 97.6168 306.937 96.4953 306 95.6541C305.062 94.7663 303.891 94.1121 302.438 93.5513C300.984 93.0373 299.344 92.57 297.469 92.1962C295.594 91.8224 293.719 91.4018 291.797 90.9812C289.828 90.5607 287.906 89.9999 286.078 89.3925C284.25 88.785 282.609 87.9439 281.156 86.8691C279.703 85.8411 278.531 84.4859 277.688 82.8504C276.797 81.2149 276.375 79.2055 276.375 76.7756C276.375 74.1588 277.031 72.0093 278.297 70.2336C279.563 68.4579 281.203 67.056 283.125 65.9812C285.094 64.9065 287.25 64.1588 289.641 63.6915C292.031 63.271 294.328 63.0373 296.484 63.0373C298.969 63.0373 301.359 63.3177 303.609 63.8317C305.859 64.3457 307.922 65.1869 309.75 66.4018C311.578 67.57 313.078 69.1121 314.297 70.9812C315.516 72.8504 316.266 75.1401 316.594 77.8037H305.531C305.016 75.2803 303.891 73.5513 302.063 72.7102C300.234 71.8224 298.125 71.4018 295.781 71.4018C295.031 71.4018 294.141 71.4485 293.109 71.5887C292.078 71.7289 291.141 71.9626 290.203 72.2897C289.312 72.6168 288.563 73.1308 287.906 73.785C287.297 74.4392 286.969 75.2803 286.969 76.3551C286.969 77.6635 287.437 78.6915 288.328 79.4859C289.219 80.2803 290.391 80.9345 291.844 81.4953C293.297 82.0093 294.938 82.4766 296.813 82.8504C298.688 83.2242 300.609 83.6448 302.578 84.0654C304.5 84.4859 306.375 85.0467 308.25 85.6541C310.125 86.2616 311.766 87.1027 313.219 88.1775C314.672 89.2523 315.844 90.5607 316.734 92.1495C317.625 93.7383 318.094 95.7476 318.094 98.084C318.094 100.935 317.438 103.318 316.125 105.327C314.813 107.29 313.125 108.925 311.062 110.14C309 111.355 306.656 112.29 304.125 112.85C301.594 113.411 299.063 113.692 296.578 113.692C293.531 113.692 290.719 113.364 288.141 112.663C285.563 111.963 283.313 110.935 281.438 109.579C279.563 108.178 278.063 106.449 276.984 104.392C275.906 102.336 275.344 99.8598 275.25 97.0093H285.937V96.9158ZM320.906 64.3457H328.922V49.9532H339.516V64.3457H349.078V72.2429H339.516V97.8504C339.516 98.9719 339.562 99.9065 339.656 100.748C339.75 101.542 339.984 102.243 340.312 102.804C340.641 103.364 341.156 103.785 341.859 104.065C342.562 104.346 343.453 104.486 344.672 104.486C345.422 104.486 346.172 104.486 346.922 104.439C347.672 104.392 348.422 104.299 349.172 104.112V112.29C348 112.43 346.828 112.523 345.75 112.663C344.625 112.804 343.5 112.85 342.328 112.85C339.516 112.85 337.266 112.57 335.578 112.056C333.891 111.542 332.531 110.748 331.594 109.72C330.609 108.692 330 107.43 329.625 105.888C329.297 104.346 329.063 102.57 329.016 100.607V72.3364H321V64.3457H320.906ZM356.578 64.3457H366.609V70.8411H366.797C368.297 68.0373 370.359 66.0747 373.031 64.8598C375.703 63.6448 378.562 63.0373 381.703 63.0373C385.5 63.0373 388.781 63.6915 391.594 65.0467C394.406 66.3551 396.75 68.1775 398.625 70.514C400.5 72.8504 401.859 75.5607 402.797 78.6448C403.734 81.7289 404.203 85.0467 404.203 88.5513C404.203 91.7756 403.781 94.9065 402.938 97.8971C402.094 100.935 400.828 103.598 399.141 105.935C397.453 108.271 395.297 110.093 392.672 111.495C390.047 112.897 387 113.598 383.438 113.598C381.891 113.598 380.344 113.458 378.797 113.178C377.25 112.897 375.75 112.43 374.344 111.822C372.937 111.215 371.578 110.42 370.406 109.439C369.188 108.458 368.203 107.336 367.359 106.075H367.172V130H356.578V64.3457V64.3457ZM393.609 88.3644C393.609 86.2149 393.328 84.1121 392.766 82.056C392.203 79.9999 391.359 78.2242 390.234 76.6355C389.109 75.0467 387.703 73.785 386.062 72.8504C384.375 71.9158 382.453 71.4018 380.297 71.4018C375.844 71.4018 372.469 72.9439 370.219 76.028C367.969 79.1121 366.844 83.2242 366.844 88.3644C366.844 90.7943 367.125 93.0373 367.734 95.0934C368.344 97.1495 369.188 98.9252 370.406 100.42C371.578 101.916 372.984 103.084 374.625 103.925C376.266 104.813 378.188 105.234 380.344 105.234C382.781 105.234 384.797 104.72 386.484 103.738C388.172 102.757 389.531 101.449 390.609 99.9065C391.687 98.3177 392.484 96.542 392.953 94.5326C393.375 92.5233 393.609 90.4672 393.609 88.3644V88.3644ZM412.312 46.0747H422.906V56.0747H412.312V46.0747ZM412.312 64.3457H422.906V112.29H412.312V64.3457ZM432.375 46.0747H442.969V112.29H432.375V46.0747ZM475.453 113.598C471.609 113.598 468.188 112.944 465.188 111.682C462.188 110.42 459.656 108.645 457.547 106.449C455.484 104.206 453.891 101.542 452.813 98.4579C451.734 95.3738 451.172 91.9626 451.172 88.271C451.172 84.6261 451.734 81.2616 452.813 78.1775C453.891 75.0934 455.484 72.4298 457.547 70.1869C459.609 67.9439 462.188 66.2149 465.188 64.9532C468.188 63.6915 471.609 63.0373 475.453 63.0373C479.297 63.0373 482.719 63.6915 485.719 64.9532C488.719 66.2149 491.25 67.9906 493.359 70.1869C495.422 72.4298 497.016 75.0934 498.094 78.1775C499.172 81.2616 499.734 84.6261 499.734 88.271C499.734 91.9626 499.172 95.3738 498.094 98.4579C497.016 101.542 495.422 104.206 493.359 106.449C491.297 108.692 488.719 110.42 485.719 111.682C482.719 112.944 479.297 113.598 475.453 113.598V113.598ZM475.453 105.234C477.797 105.234 479.859 104.72 481.594 103.738C483.328 102.757 484.734 101.449 485.859 99.8597C486.984 98.271 487.781 96.4485 488.344 94.4392C488.859 92.4298 489.141 90.3738 489.141 88.271C489.141 86.2149 488.859 84.2055 488.344 82.1495C487.828 80.0934 486.984 78.3177 485.859 76.7289C484.734 75.1401 483.328 73.8784 481.594 72.8971C479.859 71.9158 477.797 71.4018 475.453 71.4018C473.109 71.4018 471.047 71.9158 469.312 72.8971C467.578 73.8784 466.172 75.1869 465.047 76.7289C463.922 78.3177 463.125 80.0934 462.562 82.1495C462.047 84.2055 461.766 86.2149 461.766 88.271C461.766 90.3738 462.047 92.4298 462.562 94.4392C463.078 96.4485 463.922 98.271 465.047 99.8597C466.172 101.449 467.578 102.757 469.312 103.738C471.047 104.766 473.109 105.234 475.453 105.234V105.234ZM502.828 64.3457H510.844V49.9532H521.438V64.3457H531V72.2429H521.438V97.8504C521.438 98.9719 521.484 99.9065 521.578 100.748C521.672 101.542 521.906 102.243 522.234 102.804C522.562 103.364 523.078 103.785 523.781 104.065C524.484 104.346 525.375 104.486 526.594 104.486C527.344 104.486 528.094 104.486 528.844 104.439C529.594 104.392 530.344 104.299 531.094 104.112V112.29C529.922 112.43 528.75 112.523 527.672 112.663C526.547 112.804 525.422 112.85 524.25 112.85C521.438 112.85 519.188 112.57 517.5 112.056C515.813 111.542 514.453 110.748 513.516 109.72C512.531 108.692 511.922 107.43 511.547 105.888C511.219 104.346 510.984 102.57 510.938 100.607V72.3364H502.922V64.3457H502.828Z" fill="white"/>
<path d="M127.172 46.0748H78.6094L63.6094 0L48.5625 46.0748L0 46.028L39.3281 74.5327L24.2812 120.561L63.6094 92.1028L102.891 120.561L87.8906 74.5327L127.172 46.0748Z" fill="#00B67A"/>
<path d="M91.2656 84.9533L87.8906 74.5327L63.6094 92.1028L91.2656 84.9533Z" fill="#005128"/>
</g>
<defs>
<clipPath id="clip0_201_2">
<rect width="531" height="130" fill="white"/>
</clipPath>
</defs>
</svg>
